<mxfile host="app.diagrams.net" modified="2021-12-05T21:59:05.967Z" agent="5.0 (Windows NT 10.0; Win64; x64) AppleWebKit/537.36 (KHTML, like Gecko) Chrome/96.0.4664.45 Safari/537.36" etag="Afb6pVD1gOQGxZRUQuFY" version="15.9.1" type="github">
  <diagram id="QhX_rIvvopEViwujLA2S" name="Page-1">
    <mxGraphModel dx="2585" dy="1451" grid="1" gridSize="10" guides="1" tooltips="1" connect="1" arrows="1" fold="1" page="1" pageScale="1" pageWidth="827" pageHeight="1169" math="0" shadow="0">
      <root>
        <mxCell id="0" />
        <mxCell id="1" parent="0" />
        <mxCell id="vQBXgAKlgrNEX-64eEQt-1" value="zone0" style="swimlane;strokeColor=#FF621F;" vertex="1" parent="1">
          <mxGeometry x="70" y="90" width="380" height="760" as="geometry" />
        </mxCell>
        <mxCell id="vQBXgAKlgrNEX-64eEQt-21" style="edgeStyle=orthogonalEdgeStyle;rounded=0;orthogonalLoop=1;jettySize=auto;html=1;entryX=0.5;entryY=0;entryDx=0;entryDy=0;" edge="1" parent="vQBXgAKlgrNEX-64eEQt-1" source="vQBXgAKlgrNEX-64eEQt-5" target="vQBXgAKlgrNEX-64eEQt-10">
          <mxGeometry relative="1" as="geometry" />
        </mxCell>
        <mxCell id="vQBXgAKlgrNEX-64eEQt-22" value="01110" style="edgeLabel;html=1;align=center;verticalAlign=middle;resizable=0;points=[];" vertex="1" connectable="0" parent="vQBXgAKlgrNEX-64eEQt-21">
          <mxGeometry x="-0.1895" y="2" relative="1" as="geometry">
            <mxPoint as="offset" />
          </mxGeometry>
        </mxCell>
        <mxCell id="vQBXgAKlgrNEX-64eEQt-5" value="user/User1" style="ellipse;whiteSpace=wrap;html=1;strokeColor=default;" vertex="1" parent="vQBXgAKlgrNEX-64eEQt-1">
          <mxGeometry x="30" y="50" width="120" height="80" as="geometry" />
        </mxCell>
        <mxCell id="vQBXgAKlgrNEX-64eEQt-6" value="user/user2" style="ellipse;whiteSpace=wrap;html=1;strokeColor=default;" vertex="1" parent="vQBXgAKlgrNEX-64eEQt-1">
          <mxGeometry x="224" y="50" width="120" height="80" as="geometry" />
        </mxCell>
        <mxCell id="vQBXgAKlgrNEX-64eEQt-23" style="edgeStyle=orthogonalEdgeStyle;rounded=0;orthogonalLoop=1;jettySize=auto;html=1;entryX=0.5;entryY=0;entryDx=0;entryDy=0;" edge="1" parent="vQBXgAKlgrNEX-64eEQt-1" source="vQBXgAKlgrNEX-64eEQt-10" target="vQBXgAKlgrNEX-64eEQt-18">
          <mxGeometry relative="1" as="geometry" />
        </mxCell>
        <mxCell id="vQBXgAKlgrNEX-64eEQt-24" value="10101" style="edgeLabel;html=1;align=center;verticalAlign=middle;resizable=0;points=[];" vertex="1" connectable="0" parent="vQBXgAKlgrNEX-64eEQt-23">
          <mxGeometry x="-0.3333" y="-1" relative="1" as="geometry">
            <mxPoint as="offset" />
          </mxGeometry>
        </mxCell>
        <mxCell id="vQBXgAKlgrNEX-64eEQt-10" value="group/Group1" style="ellipse;whiteSpace=wrap;html=1;strokeColor=default;" vertex="1" parent="vQBXgAKlgrNEX-64eEQt-1">
          <mxGeometry x="120" y="230" width="120" height="80" as="geometry" />
        </mxCell>
        <mxCell id="vQBXgAKlgrNEX-64eEQt-14" value="space/Space1" style="ellipse;whiteSpace=wrap;html=1;strokeColor=default;" vertex="1" parent="vQBXgAKlgrNEX-64eEQt-1">
          <mxGeometry x="30" y="390" width="120" height="80" as="geometry" />
        </mxCell>
        <mxCell id="vQBXgAKlgrNEX-64eEQt-15" value="space/Space2" style="ellipse;whiteSpace=wrap;html=1;strokeColor=default;" vertex="1" parent="vQBXgAKlgrNEX-64eEQt-1">
          <mxGeometry x="220" y="390" width="120" height="80" as="geometry" />
        </mxCell>
        <mxCell id="vQBXgAKlgrNEX-64eEQt-18" value="provider/Provider1" style="ellipse;whiteSpace=wrap;html=1;strokeColor=default;" vertex="1" parent="vQBXgAKlgrNEX-64eEQt-1">
          <mxGeometry x="120" y="550" width="120" height="80" as="geometry" />
        </mxCell>
        <mxCell id="vQBXgAKlgrNEX-64eEQt-2" value="zone1" style="swimlane;strokeColor=#FF621F;" vertex="1" parent="1">
          <mxGeometry x="510" y="90" width="370" height="760" as="geometry" />
        </mxCell>
        <mxCell id="vQBXgAKlgrNEX-64eEQt-27" style="edgeStyle=orthogonalEdgeStyle;rounded=0;orthogonalLoop=1;jettySize=auto;html=1;exitX=0.5;exitY=1;exitDx=0;exitDy=0;entryX=0.5;entryY=0;entryDx=0;entryDy=0;" edge="1" parent="vQBXgAKlgrNEX-64eEQt-2" source="vQBXgAKlgrNEX-64eEQt-7" target="vQBXgAKlgrNEX-64eEQt-12">
          <mxGeometry relative="1" as="geometry" />
        </mxCell>
        <mxCell id="vQBXgAKlgrNEX-64eEQt-28" value="00011" style="edgeLabel;html=1;align=center;verticalAlign=middle;resizable=0;points=[];" vertex="1" connectable="0" parent="vQBXgAKlgrNEX-64eEQt-27">
          <mxGeometry x="0.3128" y="2" relative="1" as="geometry">
            <mxPoint as="offset" />
          </mxGeometry>
        </mxCell>
        <mxCell id="vQBXgAKlgrNEX-64eEQt-7" value="user/User3" style="ellipse;whiteSpace=wrap;html=1;strokeColor=default;" vertex="1" parent="vQBXgAKlgrNEX-64eEQt-2">
          <mxGeometry x="125" y="50" width="120" height="80" as="geometry" />
        </mxCell>
        <mxCell id="vQBXgAKlgrNEX-64eEQt-11" value="group/Group2" style="ellipse;whiteSpace=wrap;html=1;strokeColor=default;" vertex="1" parent="vQBXgAKlgrNEX-64eEQt-2">
          <mxGeometry x="10" y="230" width="120" height="80" as="geometry" />
        </mxCell>
        <mxCell id="vQBXgAKlgrNEX-64eEQt-29" style="edgeStyle=orthogonalEdgeStyle;rounded=0;orthogonalLoop=1;jettySize=auto;html=1;exitX=0;exitY=0.5;exitDx=0;exitDy=0;entryX=1;entryY=0.5;entryDx=0;entryDy=0;" edge="1" parent="vQBXgAKlgrNEX-64eEQt-2" source="vQBXgAKlgrNEX-64eEQt-12" target="vQBXgAKlgrNEX-64eEQt-11">
          <mxGeometry relative="1" as="geometry" />
        </mxCell>
        <mxCell id="vQBXgAKlgrNEX-64eEQt-30" value="00010" style="edgeLabel;html=1;align=center;verticalAlign=middle;resizable=0;points=[];" vertex="1" connectable="0" parent="vQBXgAKlgrNEX-64eEQt-29">
          <mxGeometry x="-0.719" relative="1" as="geometry">
            <mxPoint as="offset" />
          </mxGeometry>
        </mxCell>
        <mxCell id="vQBXgAKlgrNEX-64eEQt-12" value="group/Group3" style="ellipse;whiteSpace=wrap;html=1;strokeColor=default;" vertex="1" parent="vQBXgAKlgrNEX-64eEQt-2">
          <mxGeometry x="245" y="230" width="120" height="80" as="geometry" />
        </mxCell>
        <mxCell id="vQBXgAKlgrNEX-64eEQt-36" style="edgeStyle=orthogonalEdgeStyle;rounded=0;orthogonalLoop=1;jettySize=auto;html=1;exitX=0.5;exitY=1;exitDx=0;exitDy=0;entryX=0.5;entryY=0;entryDx=0;entryDy=0;" edge="1" parent="vQBXgAKlgrNEX-64eEQt-2" source="vQBXgAKlgrNEX-64eEQt-16" target="vQBXgAKlgrNEX-64eEQt-19">
          <mxGeometry relative="1" as="geometry" />
        </mxCell>
        <mxCell id="vQBXgAKlgrNEX-64eEQt-37" value="01100" style="edgeLabel;html=1;align=center;verticalAlign=middle;resizable=0;points=[];" vertex="1" connectable="0" parent="vQBXgAKlgrNEX-64eEQt-36">
          <mxGeometry x="-0.7286" y="1" relative="1" as="geometry">
            <mxPoint as="offset" />
          </mxGeometry>
        </mxCell>
        <mxCell id="vQBXgAKlgrNEX-64eEQt-16" value="space/Space3" style="ellipse;whiteSpace=wrap;html=1;strokeColor=default;" vertex="1" parent="vQBXgAKlgrNEX-64eEQt-2">
          <mxGeometry x="125" y="390" width="120" height="80" as="geometry" />
        </mxCell>
        <mxCell id="vQBXgAKlgrNEX-64eEQt-19" value="provider/Provider2" style="ellipse;whiteSpace=wrap;html=1;strokeColor=default;" vertex="1" parent="vQBXgAKlgrNEX-64eEQt-2">
          <mxGeometry x="125" y="550" width="120" height="80" as="geometry" />
        </mxCell>
        <mxCell id="vQBXgAKlgrNEX-64eEQt-3" value="zone2" style="swimlane;strokeColor=#FF621F;" vertex="1" parent="1">
          <mxGeometry x="930" y="90" width="400" height="760" as="geometry" />
        </mxCell>
        <mxCell id="vQBXgAKlgrNEX-64eEQt-8" value="user/User4" style="ellipse;whiteSpace=wrap;html=1;strokeColor=default;" vertex="1" parent="vQBXgAKlgrNEX-64eEQt-3">
          <mxGeometry x="40" y="50" width="120" height="80" as="geometry" />
        </mxCell>
        <mxCell id="vQBXgAKlgrNEX-64eEQt-42" style="edgeStyle=orthogonalEdgeStyle;rounded=0;orthogonalLoop=1;jettySize=auto;html=1;entryX=0.5;entryY=0;entryDx=0;entryDy=0;" edge="1" parent="vQBXgAKlgrNEX-64eEQt-3" source="vQBXgAKlgrNEX-64eEQt-9" target="vQBXgAKlgrNEX-64eEQt-13">
          <mxGeometry relative="1" as="geometry" />
        </mxCell>
        <mxCell id="vQBXgAKlgrNEX-64eEQt-43" value="01101" style="edgeLabel;html=1;align=center;verticalAlign=middle;resizable=0;points=[];" vertex="1" connectable="0" parent="vQBXgAKlgrNEX-64eEQt-42">
          <mxGeometry x="0.1917" y="-2" relative="1" as="geometry">
            <mxPoint as="offset" />
          </mxGeometry>
        </mxCell>
        <mxCell id="vQBXgAKlgrNEX-64eEQt-9" value="user/User5" style="ellipse;whiteSpace=wrap;html=1;strokeColor=default;" vertex="1" parent="vQBXgAKlgrNEX-64eEQt-3">
          <mxGeometry x="240" y="50" width="120" height="80" as="geometry" />
        </mxCell>
        <mxCell id="vQBXgAKlgrNEX-64eEQt-45" style="edgeStyle=orthogonalEdgeStyle;rounded=0;orthogonalLoop=1;jettySize=auto;html=1;exitX=1;exitY=1;exitDx=0;exitDy=0;entryX=1;entryY=0;entryDx=0;entryDy=0;" edge="1" parent="vQBXgAKlgrNEX-64eEQt-3" source="vQBXgAKlgrNEX-64eEQt-13" target="vQBXgAKlgrNEX-64eEQt-17">
          <mxGeometry relative="1" as="geometry">
            <Array as="points">
              <mxPoint x="242" y="330" />
              <mxPoint x="242" y="330" />
            </Array>
          </mxGeometry>
        </mxCell>
        <mxCell id="vQBXgAKlgrNEX-64eEQt-46" value="10111" style="edgeLabel;html=1;align=center;verticalAlign=middle;resizable=0;points=[];" vertex="1" connectable="0" parent="vQBXgAKlgrNEX-64eEQt-45">
          <mxGeometry x="-0.29" y="1" relative="1" as="geometry">
            <mxPoint as="offset" />
          </mxGeometry>
        </mxCell>
        <mxCell id="vQBXgAKlgrNEX-64eEQt-13" value="group/Group4" style="ellipse;whiteSpace=wrap;html=1;strokeColor=default;" vertex="1" parent="vQBXgAKlgrNEX-64eEQt-3">
          <mxGeometry x="140" y="230" width="120" height="80" as="geometry" />
        </mxCell>
        <mxCell id="vQBXgAKlgrNEX-64eEQt-17" value="space/Space4" style="ellipse;whiteSpace=wrap;html=1;strokeColor=default;" vertex="1" parent="vQBXgAKlgrNEX-64eEQt-3">
          <mxGeometry x="140" y="390" width="120" height="80" as="geometry" />
        </mxCell>
        <mxCell id="vQBXgAKlgrNEX-64eEQt-20" value="provider/Provider3" style="ellipse;whiteSpace=wrap;html=1;strokeColor=default;" vertex="1" parent="vQBXgAKlgrNEX-64eEQt-3">
          <mxGeometry x="140" y="550" width="120" height="80" as="geometry" />
        </mxCell>
        <mxCell id="vQBXgAKlgrNEX-64eEQt-25" style="edgeStyle=orthogonalEdgeStyle;rounded=0;orthogonalLoop=1;jettySize=auto;html=1;exitX=0.5;exitY=1;exitDx=0;exitDy=0;" edge="1" parent="1" source="vQBXgAKlgrNEX-64eEQt-6" target="vQBXgAKlgrNEX-64eEQt-17">
          <mxGeometry relative="1" as="geometry">
            <Array as="points">
              <mxPoint x="354" y="430" />
              <mxPoint x="1130" y="430" />
            </Array>
          </mxGeometry>
        </mxCell>
        <mxCell id="vQBXgAKlgrNEX-64eEQt-26" value="00100" style="edgeLabel;html=1;align=center;verticalAlign=middle;resizable=0;points=[];" vertex="1" connectable="0" parent="vQBXgAKlgrNEX-64eEQt-25">
          <mxGeometry x="0.2587" y="-3" relative="1" as="geometry">
            <mxPoint as="offset" />
          </mxGeometry>
        </mxCell>
        <mxCell id="vQBXgAKlgrNEX-64eEQt-34" style="edgeStyle=orthogonalEdgeStyle;rounded=0;orthogonalLoop=1;jettySize=auto;html=1;entryX=1;entryY=0.5;entryDx=0;entryDy=0;" edge="1" parent="1" source="vQBXgAKlgrNEX-64eEQt-11" target="vQBXgAKlgrNEX-64eEQt-15">
          <mxGeometry relative="1" as="geometry" />
        </mxCell>
        <mxCell id="vQBXgAKlgrNEX-64eEQt-35" value="10000" style="edgeLabel;html=1;align=center;verticalAlign=middle;resizable=0;points=[];" vertex="1" connectable="0" parent="vQBXgAKlgrNEX-64eEQt-34">
          <mxGeometry x="0.2257" y="-3" relative="1" as="geometry">
            <mxPoint as="offset" />
          </mxGeometry>
        </mxCell>
        <mxCell id="vQBXgAKlgrNEX-64eEQt-38" style="edgeStyle=orthogonalEdgeStyle;rounded=0;orthogonalLoop=1;jettySize=auto;html=1;entryX=1;entryY=0.5;entryDx=0;entryDy=0;" edge="1" parent="1" source="vQBXgAKlgrNEX-64eEQt-8" target="vQBXgAKlgrNEX-64eEQt-12">
          <mxGeometry relative="1" as="geometry" />
        </mxCell>
        <mxCell id="vQBXgAKlgrNEX-64eEQt-39" value="01000" style="edgeLabel;html=1;align=center;verticalAlign=middle;resizable=0;points=[];" vertex="1" connectable="0" parent="vQBXgAKlgrNEX-64eEQt-38">
          <mxGeometry x="-0.1212" y="-1" relative="1" as="geometry">
            <mxPoint as="offset" />
          </mxGeometry>
        </mxCell>
        <mxCell id="vQBXgAKlgrNEX-64eEQt-40" style="edgeStyle=orthogonalEdgeStyle;rounded=0;orthogonalLoop=1;jettySize=auto;html=1;exitX=1;exitY=1;exitDx=0;exitDy=0;entryX=0;entryY=1;entryDx=0;entryDy=0;" edge="1" parent="1" source="vQBXgAKlgrNEX-64eEQt-12" target="vQBXgAKlgrNEX-64eEQt-13">
          <mxGeometry relative="1" as="geometry" />
        </mxCell>
        <mxCell id="vQBXgAKlgrNEX-64eEQt-41" value="10000" style="edgeLabel;html=1;align=center;verticalAlign=middle;resizable=0;points=[];" vertex="1" connectable="0" parent="vQBXgAKlgrNEX-64eEQt-40">
          <mxGeometry x="0.2607" y="2" relative="1" as="geometry">
            <mxPoint as="offset" />
          </mxGeometry>
        </mxCell>
        <mxCell id="vQBXgAKlgrNEX-64eEQt-48" style="edgeStyle=orthogonalEdgeStyle;rounded=0;orthogonalLoop=1;jettySize=auto;html=1;exitX=0.5;exitY=1;exitDx=0;exitDy=0;entryX=1;entryY=0;entryDx=0;entryDy=0;" edge="1" parent="1" source="vQBXgAKlgrNEX-64eEQt-17" target="vQBXgAKlgrNEX-64eEQt-19">
          <mxGeometry relative="1" as="geometry" />
        </mxCell>
        <mxCell id="vQBXgAKlgrNEX-64eEQt-49" value="11110" style="edgeLabel;html=1;align=center;verticalAlign=middle;resizable=0;points=[];" vertex="1" connectable="0" parent="vQBXgAKlgrNEX-64eEQt-48">
          <mxGeometry x="-0.236" y="1" relative="1" as="geometry">
            <mxPoint as="offset" />
          </mxGeometry>
        </mxCell>
      </root>
    </mxGraphModel>
  </diagram>
</mxfile>
